# xmcd
#
# Track frame offsets: 
#        150
#        21570
#        46155
#        70420
#        101785
#        128030
#        157495
#        180870
#
# Disc length: 2640 seconds
#
# Revision: 0
# Processed by: cddbd v1.5.1PL2 Copyright (c) Steve Scherf et al.
# Submitted via: ExactAudioCopy v0.95b2
#
DISCID=6e0a4e08
DTITLE=Игорь Бойко - Решилось неожидано легко
DYEAR=1900
DGENRE=Blues
TTITLE0=Просто блюз
TTITLE1=Баллада для двоих
TTITLE2=Решилось неожиданно легко
TTITLE3=Капли
TTITLE4=Звуки для стерна
TTITLE5=Мои единомышленники
TTITLE6=Счастливое путешествие
TTITLE7=Амстердам
EXTD=
EXTT0=
EXTT1=
EXTT2=
EXTT3=
EXTT4=
EXTT5=
EXTT6=
EXTT7=
PLAYORDER=
